Coordinates
version=1
nRows=19
nColumns=34
inDegrees=yes

Units are S.I. units (second, meters, Newtons, ...)
If the header above contains a line with 'inDegrees', this indicates whether rotational values are in degrees (yes) or radians (no).

endheader
time	pelvis_tilt	pelvis_list	pelvis_rotation	pelvis_tx	pelvis_ty	pelvis_tz	hip_flexion_r	hip_adduction_r	hip_rotation_r	knee_angle_r	ankle_angle_r	subtalar_angle_r	mtp_angle_r	hip_flexion_l	hip_adduction_l	hip_rotation_l	knee_angle_l	ankle_angle_l	subtalar_angle_l	mtp_angle_l	lumbar_extension	lumbar_bending	lumbar_rotation	arm_flex_r	arm_add_r	arm_rot_r	elbow_flex_r	pro_sup_r	arm_flex_l	arm_add_l	arm_rot_l	elbow_flex_l	pro_sup_l
      0.00000000	     -6.73163441	      3.21807243	    -81.95074645	      0.91495880	      0.90374918	     -0.14875617	     45.60068631	     -2.61732212	    -13.07933766	     36.93095085	     -3.87598818	      6.40173899	      0.00000000	      2.91030150	      5.09026201	     -6.90875518	     13.21756216	      4.87684191	      4.38344020	      0.00000000	    -19.17013093	     -1.69191005	     -2.70661455	     13.44008338	    -21.21064580	     58.47480530	     37.50800905	     49.84918324	      5.15437022	    -32.76926054	     34.59435527	     40.06430942	     45.27082182
      0.01666670	     -4.83389005	      2.58067615	    -83.55074499	      0.91687045	      0.90034349	     -0.14889315	     42.90141065	     -4.96999825	    -13.70358274	     31.30511260	      3.51030972	     10.07221841	      0.00000000	      1.20803603	      8.15609675	     -7.20204943	     13.00140114	      4.12857122	     14.46623713	      0.00000000	    -20.45266684	     -4.41347933	     -1.57228926	     13.46558146	    -22.61814286	     60.09587701	     38.79127357	     50.27801918	      6.03179138	    -33.47965401	     34.09987937	     40.73434870	     45.84461189
      0.03333330	     -0.89751450	      1.51035729	    -82.74147438	      0.91437667	      0.89726281	     -0.14586818	     38.62447191	     -9.73451991	     -7.72417263	     21.31638616	      0.59848305	      1.13047369	      0.00000000	     -2.25387838	     12.05741504	     -6.45177757	     11.94328544	      5.33553699	     20.66762764	      0.00000000	    -21.90072792	     -8.73643578	     -3.99559987	     14.31799027	    -22.06543455	     63.65474067	     39.44211196	     51.12211459	      6.16357040	    -37.11342897	     37.21407166	     43.32013341	     46.66015633
      0.05000000	      2.51434615	      1.23611326	    -81.76166306	      0.91119131	      0.89110292	     -0.14217979	     35.19061103	    -14.89812830	     -2.89220198	     12.28348233	     -4.94734490	     -8.21961409	      0.00000000	     -5.06306738	     15.28685015	     -4.58481366	     10.81553004	      6.75476431	     24.63191503	      0.00000000	    -22.57666271	    -12.40366332	     -6.01467621	     14.97721459	    -22.39298416	     69.45413601	     40.94701538	     52.57344185	      6.93866010	    -40.56548731	     41.66021545	     46.44605733	     46.67880896
      0.06666670	      6.34004368	      0.50133874	    -80.82507216	      0.90704099	      0.88544822	     -0.13773314	     32.30510643	    -21.58204906	     -1.92740934	      6.42952351	    -11.50311855	    -12.85354995	      0.00000000	     -8.61529964	     18.36566160	     -3.81721526	     10.05992691	      8.23170475	     29.10763992	      0.00000000	    -23.56647404	    -16.33311514	     -8.26297783	     15.32174264	    -22.50045325	     74.07856874	     43.15008771	     54.10205355	      7.31183580	    -43.54436360	     45.19454218	     48.96916568	     45.84893856
      0.08333330	      9.55612476	     -0.02949664	    -80.15383379	      0.90103491	      0.88108548	     -0.13209868	     30.55435323	    -27.12561256	     -4.33549144	      3.29546818	    -17.60289814	    -13.38569027	      0.00000000	    -11.50525390	     20.32264717	     -4.43731690	     10.00806567	      9.53231064	     33.75554015	      0.00000000	    -24.46977520	    -19.69816863	    -10.04716556	     15.66089238	    -22.23644503	     77.35864477	     45.04720277	     55.72832240	      7.48475346	    -45.69741561	     47.57310253	     50.57895931	     44.57055311
      0.10000000	     11.67002756	     -0.25125961	    -79.73219540	      0.89504858	      0.87804733	     -0.12724797	     29.59834035	    -30.35934187	     -6.41138646	      2.11140834	    -23.25906963	    -14.73715491	      0.00000000	    -13.16120408	     21.06813559	     -4.64369833	     10.77932120	     10.09026485	     35.00000000	      0.00000000	    -25.00925967	    -22.04764291	    -11.13753244	     16.12332342	    -21.82578393	     79.92044089	     46.45699333	     57.79452395	      7.62273795	    -47.17130137	     49.48808769	     51.25692893	     42.76185122
      0.11666670	     12.42344430	     -0.02332141	    -79.54424118	      0.89192993	      0.87545593	     -0.12488171	     29.25546746	    -31.08701093	     -7.22344488	      2.44659861	    -27.52817505	    -17.17133608	      0.00000000	    -13.13174792	     20.47917288	     -5.70139321	     12.89233190	     10.72861540	     35.00000000	      0.00000000	    -24.94658310	    -22.92641480	    -11.28687122	     16.65831333	    -21.24863695	     82.10316526	     46.41891380	     64.64301673	      8.81732660	    -47.28689647	     52.63651002	     50.57980483	     36.20404232
      0.13333330	     12.67724104	      0.84746713	    -79.56650353	      0.89233004	      0.87304052	     -0.12499039	     30.03099744	    -30.72620422	     -6.18917675	      4.13590401	    -31.01641195	    -21.12363290	      0.00000000	    -11.55448474	     19.49271342	     -7.36240269	     16.11253075	     10.68308973	     35.00000000	      0.00000000	    -24.41407179	    -23.36633743	    -11.30862128	     16.28875326	    -20.66169736	     81.41438623	     47.03252589	     65.23308025	      8.86918075	    -46.63189959	     52.60370465	     49.85039256	     35.66090083
      0.15000000	     12.84594076	      1.48140522	    -79.71281800	      0.89456918	      0.87473754	     -0.12644998	     30.69312129	    -30.00756170	     -4.39210134	      6.39515273	    -33.39744424	    -24.73635025	      0.00000000	     -9.60474486	     18.27320501	     -9.20690230	     20.36920175	      9.86195850	     35.00000000	      0.00000000	    -24.14903334	    -23.63268175	    -11.17196448	     15.90483889	    -19.51317973	     80.90765194	     46.54424101	     66.08897008	      9.26482497	    -45.55948893	     52.69880544	     48.74915346	     35.07323527
      0.16666670	     13.02618616	      2.15407080	    -79.64527495	      0.89570096	      0.87909163	     -0.12663974	     31.21230181	    -29.45681022	     -2.72860438	      8.59567263	    -34.37438658	    -26.35614723	      0.00000000	     -6.97942178	     16.73136299	    -10.95595411	     25.86564520	      8.39298974	     35.00000000	      0.00000000	    -23.96929760	    -23.81307924	    -11.20604254	     15.36663932	    -17.96703336	     80.05967427	     45.08978369	     66.77942027	      9.64203864	    -44.45839055	     52.80202799	     47.64920077	     34.55251735
      0.18333330	     13.01067543	      2.80018925	    -79.36154526	      0.89358285	      0.88292687	     -0.12479410	     31.55757208	    -28.94632348	     -1.70488184	     10.72825440	    -34.11082370	    -26.07640325	      0.00000000	     -3.73657610	     14.31502356	    -13.21285458	     32.93829073	      6.40644827	     35.00000000	      0.00000000	    -23.83460237	    -23.72249629	    -11.29894288	     14.70165402	    -16.32230565	     78.70598470	     43.20935082	     67.35465862	      9.98345885	    -43.51742271	     52.76190820	     46.54727031	     33.92792785
      0.20000000	     12.50611914	      3.15829995	    -78.88472967	      0.88921228	      0.88498719	     -0.12276356	     31.57397387	    -28.27228813	     -1.97778548	     12.88780231	    -33.17145525	    -24.90758558	      0.00000000	     -0.57173660	     10.55693710	    -15.78937767	     40.81391744	      3.95819497	     35.00000000	      0.00000000	    -24.02490379	    -22.93948901	    -11.29025245	     14.46470094	    -15.16100049	     77.99911887	     42.18573577	     67.42081416	     10.22578349	    -42.88998734	     52.57022435	     46.37286830	     33.68355189
      0.21666670	     11.96300511	      4.20876881	    -78.49509315	      0.88282837	      0.88481918	     -0.12092376	     32.91098303	    -28.09999448	     -3.33038951	     15.61326602	    -30.36861636	    -21.30964472	      0.00000000	      3.26495001	      6.53658720	    -17.66951564	     48.54392260	      1.98219588	     35.00000000	      0.00000000	    -23.07230335	    -22.53689150	    -11.14896481	     13.71548517	    -13.69648832	     76.18594807	     40.13298364	     67.33285310	     10.22725445	    -42.34942999	     51.72745413	     45.48978784	     33.04417178
      0.23333330	     11.47741089	      4.43084301	    -78.51552978	      0.87255585	      0.88400015	     -0.11699803	     33.48440046	    -27.73572302	     -4.28193760	     18.25711462	    -26.28643981	    -17.31836845	      0.00000000	      5.95311300	      2.36171237	    -18.59944811	     55.36575251	     -0.26943074	     35.00000000	      0.00000000	    -22.76962348	    -22.01790448	    -10.67792196	     13.08532702	    -12.74357770	     73.99662328	     38.78523059	     67.04222843	      9.88966837	    -41.75800174	     50.47520836	     44.76062294	     31.95038979
      0.25000000	     10.79680790	      4.67780024	    -78.54399952	      0.85975456	      0.88304758	     -0.11100995	     33.53382415	    -26.75665142	     -4.19946537	     20.13763010	    -21.95394490	    -14.26107292	      0.00000000	      8.80600926	     -2.09308715	    -18.36256037	     61.64732153	     -2.04640917	     35.00000000	      0.00000000	    -22.02166035	    -21.53904806	    -10.02694253	     12.39424903	    -12.14292254	     72.49507268	     38.31531477	     66.61037770	      9.41934784	    -41.45635266	     49.27624623	     44.45374112	     30.75739416
      0.26666670	      9.86625297	      4.76911408	    -78.49241428	      0.85071162	      0.88355458	     -0.10668799	     32.91796546	    -25.10488552	     -3.19625638	     21.42981806	    -18.04171287	    -13.10697801	      0.00000000	     11.51957263	     -6.87274692	    -17.71243269	     67.06781487	     -3.81068810	     35.00000000	      0.00000000	    -21.20140585	    -20.88118259	     -9.16333210	     11.87468768	    -11.68689251	     71.87066987	     38.23325405	     66.27880649	      9.17253843	    -41.31514821	     48.39515980	     44.22540255	     29.93439092
      0.28333330	      8.91673552	      4.98266799	    -78.35238108	      0.84937644	      0.88729130	     -0.10739051	     32.14592231	    -23.52204666	     -1.87089070	     22.02791288	    -14.79286056	    -12.95843726	      0.00000000	     14.28269232	    -11.07738235	    -17.14005852	     71.14649478	     -5.05806427	     35.00000000	      0.00000000	    -20.30130177	    -20.10926084	     -8.57015636	     11.13378638	    -11.47208061	     70.90262672	     38.40541397	     65.68105820	      8.67682187	    -40.75629401	     46.98288970	     43.59348889	     28.49053907
      0.30000000	      8.21103131	      4.59204016	    -78.43944949	      0.85268201	      0.89146171	     -0.11060688	     30.59640212	    -22.14957204	     -0.05562988	     21.77972430	    -14.23670241	    -15.14907481	      0.00000000	     16.30379285	    -14.21804557	    -16.83033046	     74.37903148	     -5.00408303	     35.00000000	      0.00000000	    -20.30527784	    -19.34483746	     -8.21737635	     10.78148665	    -11.28120010	     69.49065552	     39.29643147	     63.79483705	      7.67236343	    -40.19584458	     44.00305897	     43.74673692	     23.48550612
